<svg id="Ebene_1" data-name="Ebene 1" xmlns="http://www.w3.org/2000/svg" xmlns:xlink="http://www.w3.org/1999/xlink" viewBox="0 0 9.4 11.15"><defs><style>.cls-1{fill:none;}.cls-2{clip-path:url(#clip-path);}.cls-3{fill:#d65bca;}.cls-4{fill:#d45cc9;}.cls-5{fill:#d25ec9;}.cls-6{fill:#d05fc8;}.cls-7{fill:#ce60c7;}.cls-8{fill:#cc62c7;}.cls-9{fill:#ca63c6;}.cls-10{fill:#c864c5;}.cls-11{fill:#c665c5;}.cls-12{fill:#c467c4;}.cls-13{fill:#c268c4;}.cls-14{fill:#c069c3;}.cls-15{fill:#be6bc2;}.cls-16{fill:#bc6cc2;}.cls-17{fill:#ba6dc1;}.cls-18{fill:#b86fc0;}.cls-19{fill:#b670c0;}.cls-20{fill:#b471bf;}.cls-21{fill:#b273be;}.cls-22{fill:#b074be;}.cls-23{fill:#ae75bd;}.cls-24{fill:#ac77bc;}.cls-25{fill:#aa78bc;}.cls-26{fill:#a879bb;}.cls-27{fill:#a67abb;}.cls-28{fill:#a47cba;}.cls-29{fill:#a27db9;}.cls-30{fill:#a07eb9;}.cls-31{fill:#9e80b8;}.cls-32{fill:#9c81b7;}.cls-33{fill:#9a82b7;}.cls-34{fill:#9884b6;}.cls-35{fill:#9685b5;}.cls-36{fill:#9486b5;}.cls-37{fill:#9288b4;}.cls-38{fill:#9089b3;}.cls-39{fill:#8e8ab3;}.cls-40{fill:#8c8cb2;}.cls-41{fill:#8a8db2;}.cls-42{fill:#888eb1;}.cls-43{fill:#868fb0;}.cls-44{fill:#8491b0;}.cls-45{fill:#8292af;}.cls-46{fill:#8093ae;}.cls-47{fill:#7e95ae;}.cls-48{fill:#7c96ad;}.cls-49{fill:#7997ac;}.cls-50{fill:#7799ac;}.cls-51{fill:#759aab;}.cls-52{fill:#739baa;}.cls-53{fill:#719daa;}.cls-54{fill:#6f9ea9;}.cls-55{fill:#6d9fa8;}.cls-56{fill:#6ba0a8;}.cls-57{fill:#69a2a7;}.cls-58{fill:#67a3a7;}.cls-59{fill:#65a4a6;}.cls-60{fill:#63a6a5;}.cls-61{fill:#61a7a5;}.cls-62{fill:#5fa8a4;}.cls-63{fill:#5daaa3;}.cls-64{fill:#5baba3;}.cls-65{fill:#59aca2;}.cls-66{fill:#57aea1;}.cls-67{fill:#55afa1;}.cls-68{fill:#53b0a0;}.cls-69{fill:#51b29f;}.cls-70{fill:#4fb39f;}.cls-71{fill:#4db49e;}.cls-72{fill:#4bb59e;}.cls-73{fill:#49b79d;}.cls-74{fill:#47b89c;}.cls-75{fill:#45b99c;}.cls-76{fill:#43bb9b;}.cls-77{fill:#41bc9a;}.cls-78{fill:#3fbd9a;}.cls-79{fill:#3dbf99;}.cls-80{fill:#3bc098;}.cls-81{fill:#39c198;}.cls-82{fill:#37c397;}.cls-83{fill:#35c496;}.cls-84{fill:#33c596;}.cls-85{fill:#31c795;}.cls-86{fill:#2fc895;}.cls-87{fill:#2dc994;}.cls-88{fill:#2bca93;}.cls-89{fill:#29cc93;}.cls-90{fill:#27cd92;}.cls-91{fill:#25ce91;}.cls-92{fill:#23d091;}.cls-93{fill:#21d190;}.cls-94,.cls-95{fill:#fff;}.cls-94{opacity:0.12;}.cls-96{fill:#1d1d1b;}</style><clipPath id="clip-path" transform="translate(-2.29 -0.85)"><path class="cls-1" d="M8.44,8.34h0L7.18,10.39a.22.22,0,0,1-.38,0L5.53,8.34h0a3.27,3.27,0,1,1,2.9,0Z"/></clipPath></defs><g class="cls-2"><rect class="cls-3" width="1.27" height="11.15"/><rect class="cls-4" x="0.09" width="1.27" height="11.15"/><rect class="cls-5" x="0.18" width="1.27" height="11.15"/><rect class="cls-6" x="0.27" width="1.27" height="11.15"/><rect class="cls-7" x="0.36" width="1.27" height="11.15"/><rect class="cls-8" x="0.45" width="1.27" height="11.15"/><rect class="cls-9" x="0.54" width="1.27" height="11.15"/><rect class="cls-10" x="0.63" width="1.27" height="11.15"/><rect class="cls-11" x="0.72" width="1.27" height="11.15"/><rect class="cls-12" x="0.81" width="1.27" height="11.15"/><rect class="cls-13" x="0.9" width="1.27" height="11.15"/><rect class="cls-14" x="0.99" width="1.27" height="11.15"/><rect class="cls-15" x="1.08" width="1.27" height="11.15"/><rect class="cls-16" x="1.17" width="1.27" height="11.15"/><rect class="cls-17" x="1.27" width="1.27" height="11.15"/><rect class="cls-18" x="1.36" width="1.27" height="11.15"/><rect class="cls-19" x="1.45" width="1.27" height="11.15"/><rect class="cls-20" x="1.54" width="1.27" height="11.15"/><rect class="cls-21" x="1.63" width="1.27" height="11.15"/><rect class="cls-22" x="1.72" width="1.27" height="11.15"/><rect class="cls-23" x="1.81" width="1.27" height="11.15"/><rect class="cls-24" x="1.9" width="1.27" height="11.15"/><rect class="cls-25" x="1.99" width="1.27" height="11.15"/><rect class="cls-26" x="2.08" width="1.27" height="11.15"/><rect class="cls-27" x="2.17" width="1.27" height="11.15"/><rect class="cls-28" x="2.26" width="1.27" height="11.15"/><rect class="cls-29" x="2.35" width="1.27" height="11.15"/><rect class="cls-30" x="2.44" width="1.27" height="11.15"/><rect class="cls-31" x="2.53" width="1.27" height="11.15"/><rect class="cls-32" x="2.62" width="1.27" height="11.15"/><rect class="cls-33" x="2.71" width="1.27" height="11.15"/><rect class="cls-34" x="2.8" width="1.27" height="11.15"/><rect class="cls-35" x="2.89" width="1.27" height="11.15"/><rect class="cls-36" x="2.98" width="1.27" height="11.15"/><rect class="cls-37" x="3.07" width="1.27" height="11.15"/><rect class="cls-38" x="3.16" width="1.27" height="11.15"/><rect class="cls-39" x="3.25" width="1.27" height="11.15"/><rect class="cls-40" x="3.34" width="1.27" height="11.15"/><rect class="cls-41" x="3.43" width="1.27" height="11.15"/><rect class="cls-42" x="3.52" width="1.27" height="11.15"/><rect class="cls-43" x="3.61" width="1.27" height="11.15"/><rect class="cls-44" x="3.71" width="1.27" height="11.15"/><rect class="cls-45" x="3.8" width="1.27" height="11.15"/><rect class="cls-46" x="3.89" width="1.27" height="11.15"/><rect class="cls-47" x="3.98" width="1.27" height="11.15"/><rect class="cls-48" x="4.07" width="1.27" height="11.15"/><rect class="cls-49" x="4.16" width="1.27" height="11.15"/><rect class="cls-50" x="4.25" width="1.27" height="11.15"/><rect class="cls-51" x="4.34" width="1.27" height="11.15"/><rect class="cls-52" x="4.43" width="1.27" height="11.15"/><rect class="cls-53" x="4.52" width="1.27" height="11.15"/><rect class="cls-54" x="4.61" width="1.27" height="11.15"/><rect class="cls-55" x="4.7" width="1.27" height="11.15"/><rect class="cls-56" x="4.79" width="1.27" height="11.15"/><rect class="cls-57" x="4.88" width="1.27" height="11.15"/><rect class="cls-58" x="4.97" width="1.27" height="11.15"/><rect class="cls-59" x="5.06" width="1.27" height="11.15"/><rect class="cls-60" x="5.15" width="1.27" height="11.15"/><rect class="cls-61" x="5.24" width="1.27" height="11.15"/><rect class="cls-62" x="5.33" width="1.27" height="11.15"/><rect class="cls-63" x="5.42" width="1.27" height="11.15"/><rect class="cls-64" x="5.51" width="1.27" height="11.15"/><rect class="cls-65" x="5.6" width="1.27" height="11.15"/><rect class="cls-66" x="5.69" width="1.27" height="11.15"/><rect class="cls-67" x="5.78" width="1.27" height="11.15"/><rect class="cls-68" x="5.87" width="1.27" height="11.15"/><rect class="cls-69" x="5.96" width="1.27" height="11.15"/><rect class="cls-70" x="6.05" width="1.27" height="11.15"/><rect class="cls-71" x="6.15" width="1.27" height="11.15"/><rect class="cls-72" x="6.24" width="1.27" height="11.15"/><rect class="cls-73" x="6.33" width="1.27" height="11.15"/><rect class="cls-74" x="6.42" width="1.27" height="11.15"/><rect class="cls-75" x="6.51" width="1.27" height="11.15"/><rect class="cls-76" x="6.6" width="1.27" height="11.15"/><rect class="cls-77" x="6.69" width="1.27" height="11.15"/><rect class="cls-78" x="6.78" width="1.27" height="11.15"/><rect class="cls-79" x="6.87" width="1.27" height="11.15"/><rect class="cls-80" x="6.96" width="1.27" height="11.15"/><rect class="cls-81" x="7.05" width="1.27" height="11.15"/><rect class="cls-82" x="7.14" width="1.27" height="11.15"/><rect class="cls-83" x="7.23" width="1.27" height="11.15"/><rect class="cls-84" x="7.32" width="1.27" height="11.15"/><rect class="cls-85" x="7.41" width="1.27" height="11.15"/><rect class="cls-86" x="7.5" width="1.27" height="11.15"/><rect class="cls-87" x="7.59" width="1.27" height="11.15"/><rect class="cls-88" x="7.68" width="1.27" height="11.15"/><rect class="cls-89" x="7.77" width="1.27" height="11.15"/><rect class="cls-90" x="7.86" width="1.27" height="11.15"/><rect class="cls-91" x="7.95" width="1.27" height="11.15"/><rect class="cls-92" x="8.04" width="1.27" height="11.15"/><rect class="cls-93" x="8.13" width="1.27" height="11.15"/><rect class="cls-94" width="9.4" height="11.15"/></g><path class="cls-95" d="M5.9,6.31a.32.32,0,0,1,0,.14.35.35,0,0,1,0,.13H5.81V6.31Z" transform="translate(-2.29 -0.85)"/><path class="cls-95" d="M8.41,6A.43.43,0,0,0,8.19,6l-.09-.3-.35.79,0,.07H6a.69.69,0,0,0,0-.13.59.59,0,0,0,0-.14H7.5a.11.11,0,0,0,.1-.06l.4-.9L7.69,4.22a.12.12,0,0,0-.1-.07H6.78V3.89H7.85l0,.1.37,1.32v.05L8.44,6Z" transform="translate(-2.29 -0.85)"/><path class="cls-95" d="M8.5,6.19l-.24.06,0-.11a.41.41,0,0,1,.19,0h.06Z" transform="translate(-2.29 -0.85)"/><path class="cls-96" d="M5.57,6.81a.36.36,0,0,1-.36-.36.36.36,0,0,1,.36-.36.35.35,0,0,1,.33.22.32.32,0,0,1,0,.14.35.35,0,0,1,0,.13A.36.36,0,0,1,5.57,6.81Z" transform="translate(-2.29 -0.85)"/><path class="cls-96" d="M5.93,6.45a.35.35,0,0,1,0,.13.36.36,0,0,1-.33.23.36.36,0,0,1-.36-.36.36.36,0,0,1,.36-.36.35.35,0,0,1,.33.22A.32.32,0,0,1,5.93,6.45Z" transform="translate(-2.29 -0.85)"/><path class="cls-96" d="M5.93,6.45a.35.35,0,0,1,0,.13.36.36,0,0,1-.33.23.36.36,0,0,1-.36-.36.36.36,0,0,1,.36-.36.35.35,0,0,1,.33.22A.32.32,0,0,1,5.93,6.45Z" transform="translate(-2.29 -0.85)"/><path class="cls-96" d="M8.77,6.45a.36.36,0,1,1-.55-.31.41.41,0,0,1,.19,0h.06A.37.37,0,0,1,8.77,6.45Z" transform="translate(-2.29 -0.85)"/><path class="cls-96" d="M8.77,6.45a.36.36,0,1,1-.55-.31.41.41,0,0,1,.19,0h.06A.37.37,0,0,1,8.77,6.45Z" transform="translate(-2.29 -0.85)"/></svg>